<?xml version="1.0" encoding="UTF-8" standalone="no"?>
<svg
   width="24"
   height="24"
   viewBox="0 0 24 24"
   fill="none"
   version="1.1"
   id="svg1"
   sodipodi:docname="back1.svg"
   inkscape:version="1.3.2 (091e20e, 2023-11-25, custom)"
   xmlns:inkscape="http://www.inkscape.org/namespaces/inkscape"
   xmlns:sodipodi="http://sodipodi.sourceforge.net/DTD/sodipodi-0.dtd"
   xmlns="http://www.w3.org/2000/svg"
   xmlns:svg="http://www.w3.org/2000/svg">
  <defs
     id="defs1" />
  <sodipodi:namedview
     id="namedview1"
     pagecolor="#ffffff"
     bordercolor="#000000"
     borderopacity="0.25"
     inkscape:showpageshadow="2"
     inkscape:pageopacity="0.0"
     inkscape:pagecheckerboard="0"
     inkscape:deskcolor="#d1d1d1"
     inkscape:zoom="256"
     inkscape:cx="15.521484"
     inkscape:cy="21.095703"
     inkscape:window-width="1488"
     inkscape:window-height="1237"
     inkscape:window-x="2335"
     inkscape:window-y="558"
     inkscape:window-maximized="0"
     inkscape:current-layer="svg1" />
  <path
     d="M15 19.92L8.47997 13.4C7.70997 12.63 7.70997 11.37 8.47997 10.6L15 4.07999"
     stroke="#DFDFEC"
     stroke-width="1.5"
     stroke-miterlimit="10"
     stroke-linecap="round"
     stroke-linejoin="round"
     id="path1" />
  <path
     style="fill:#676767;stroke-width:0.0126783"
     d="M 14.839116,20.64686 C 14.72669,20.622392 14.603111,20.557217 14.499793,20.467904 14.352586,20.340649 7.872854,13.848173 7.7807546,13.735651 7.5240558,13.422029 7.3319005,13.036238 7.2346508,12.639235 c -0.095901,-0.391499 -0.095901,-0.886971 0,-1.27847 0.096032,-0.392032 0.2832423,-0.770416 0.5385049,-1.08841 0.084989,-0.105875 6.5761923,-6.6102336 6.7266373,-6.7402695 0.241932,-0.2091112 0.544809,-0.2538781 0.822146,-0.1215175 0.300437,0.1433856 0.475035,0.4904758 0.407141,0.8093716 -0.01091,0.051236 -0.03812,0.1339621 -0.06046,0.1838352 -0.04016,0.089629 -0.0794,0.1294993 -3.390031,3.4440857 C 8.6665468,11.464221 8.8471437,11.276924 8.7483615,11.509059 8.6786675,11.672837 8.6540058,11.801154 8.6540058,12 c 0,0.198846 0.024662,0.327163 0.094356,0.490941 0.098782,0.232135 -0.081815,0.04484 3.5302252,3.661198 3.310628,3.314587 3.349872,3.354458 3.390031,3.444087 0.115629,0.258069 0.09537,0.520522 -0.05743,0.744162 -0.169645,0.248284 -0.477654,0.370547 -0.77207,0.306472 z"
     id="path2" />
  <path
     style="fill:#999999;stroke:#999999;stroke-width:0.0126783"
     d="M 14.843433,20.640957 C 14.725612,20.614089 14.597415,20.540205 14.467738,20.424434 14.316866,20.289738 7.9592171,13.920355 7.8235854,13.768017 7.5209832,13.428142 7.2889446,12.938398 7.2081627,12.469097 7.1734034,12.267163 7.1612135,11.942159 7.1808919,11.742009 7.2293924,11.248707 7.3962758,10.808572 7.6935799,10.389857 7.7885826,10.256058 8.1753268,9.8652669 11.7905,6.2500669 13.903188,4.1373621 14.558947,3.4886847 14.615004,3.4560614 14.754277,3.3750097 14.84412,3.3492912 14.992076,3.348121 c 0.108233,-8.56e-4 0.150491,0.00464 0.226023,0.029379 0.254885,0.083495 0.447794,0.3021715 0.504409,0.5717864 0.03294,0.1568547 -9.19e-4,0.3553203 -0.08258,0.4840833 -0.05328,0.08402 -0.334743,0.3688355 -3.430636,3.4715427 -2.7321138,2.7381266 -3.2435251,3.2579416 -3.3654569,3.4207576 -0.069467,0.09276 -0.1428431,0.264372 -0.1717745,0.401747 -0.024838,0.11794 -0.024838,0.427226 0,0.545166 0.028931,0.137375 0.1023071,0.308987 0.1717745,0.401747 0.1215238,0.162271 0.6328899,0.681555 3.5682069,3.623453 1.631696,1.635353 3.025672,3.037865 3.097725,3.116691 0.149707,0.163779 0.185453,0.229417 0.2139,0.392763 0.05997,0.344324 -0.145741,0.683594 -0.488954,0.806429 -0.117169,0.04194 -0.277909,0.05315 -0.391282,0.02729 z"
     id="path3" />
</svg>
