<?xml version="1.0" encoding="UTF-8" standalone="no"?>
<svg
   width="24"
   height="24"
   viewBox="0 0 24 24"
   fill="none"
   version="1.1"
   id="svg3"
   sodipodi:docname="bookmark.svg"
   inkscape:version="1.3.2 (091e20e, 2023-11-25, custom)"
   xmlns:inkscape="http://www.inkscape.org/namespaces/inkscape"
   xmlns:sodipodi="http://sodipodi.sourceforge.net/DTD/sodipodi-0.dtd"
   xmlns="http://www.w3.org/2000/svg"
   xmlns:svg="http://www.w3.org/2000/svg">
  <defs
     id="defs3" />
  <sodipodi:namedview
     id="namedview3"
     pagecolor="#ffffff"
     bordercolor="#000000"
     borderopacity="0.25"
     inkscape:showpageshadow="2"
     inkscape:pageopacity="0.0"
     inkscape:pagecheckerboard="0"
     inkscape:deskcolor="#d1d1d1"
     inkscape:zoom="27.886524"
     inkscape:cx="10.560657"
     inkscape:cy="19.274543"
     inkscape:window-width="1488"
     inkscape:window-height="1237"
     inkscape:window-x="3242"
     inkscape:window-y="595"
     inkscape:window-maximized="0"
     inkscape:current-layer="svg3" />
  <path
     d="M16.8199 2H7.17995C5.04995 2 3.31995 3.74 3.31995 5.86V19.95C3.31995 21.75 4.60995 22.51 6.18995 21.64L11.0699 18.93C11.5899 18.64 12.4299 18.64 12.9399 18.93L17.8199 21.64C19.3999 22.52 20.6899 21.76 20.6899 19.95V5.86C20.6799 3.74 18.9499 2 16.8199 2Z"
     stroke="#DFDFEC"
     stroke-width="1.5"
     stroke-linecap="round"
     stroke-linejoin="round"
     id="path2" />
  <path
     d="M16.8199 2H7.17995C5.04995 2 3.31995 3.74 3.31995 5.86V19.95C3.31995 21.75 4.60995 22.51 6.18995 21.64L11.0699 18.93C11.5899 18.64 12.4299 18.64 12.9399 18.93L17.8199 21.64C19.3999 22.52 20.6899 21.76 20.6899 19.95V5.86C20.6799 3.74 18.9499 2 16.8199 2Z"
     stroke="#DFDFEC"
     stroke-width="1.5"
     stroke-linecap="round"
     stroke-linejoin="round"
     id="path3" />
  <path
     style="fill:#999999;stroke:#999999;stroke-width:0.0358596"
     d="M 4.6258903,22.717012 C 4.105036,22.638674 3.7266066,22.447788 3.3494893,22.073171 2.895571,21.622264 2.6650963,21.061403 2.5973144,20.242753 2.5727606,19.946199 2.5645759,17.349243 2.5731287,12.568795 2.5850904,5.8829807 2.5907043,5.3203609 2.6482618,5.0389891 3.0446051,3.101452 4.5299031,1.6405244 6.4205834,1.3285631 6.7426884,1.2754159 7.303399,1.2708057 12.174339,1.281255 l 5.396872,0.011578 0.295703,0.079165 c 1.629927,0.4363617 2.810292,1.5252613 3.32663,3.0688521 0.245396,0.7336108 0.232272,0.2562264 0.232432,8.4549489 1.57e-4,8.066731 0.009,7.701364 -0.199256,8.27856 -0.371446,1.029735 -1.271634,1.635771 -2.320326,1.562119 -0.332338,-0.02334 -0.784645,-0.138517 -1.111325,-0.282991 -0.108086,-0.0478 -1.299975,-0.699764 -2.648643,-1.448807 -1.348667,-0.749043 -2.522137,-1.3974 -2.60771,-1.440792 -0.192413,-0.09757 -0.569584,-0.133505 -0.82539,-0.07864 -0.136573,0.02929 -0.871104,0.419546 -2.6448515,1.405209 -1.3506714,0.750562 -2.5881322,1.428724 -2.7499128,1.507028 -0.3548071,0.171731 -0.665594,0.266505 -1.0408282,0.317399 -0.3082587,0.04181 -0.3863308,0.04207 -0.6518432,0.0021 z M 19.390983,21.212524 c 0.01474,-8.59e-4 0.09396,-0.06208 0.17605,-0.136035 0.179226,-0.161473 0.303409,-0.425991 0.353744,-0.753495 0.02497,-0.162488 0.03353,-2.648953 0.02612,-7.592831 C 19.935923,5.4011874 19.935663,5.3781827 19.861184,5.1279249 19.517875,3.9743767 18.776382,3.2044749 17.67879,2.8619165 L 17.356054,2.7611903 h -5.343083 c -5.077478,0 -5.3546696,0.00328 -5.5761701,0.065904 C 5.3445227,3.1359304 4.5635613,3.871616 4.2037377,4.930697 L 4.0879961,5.2713634 v 7.5843086 c 0,7.175048 0.00344,7.594158 0.063731,7.766835 0.1984128,0.568258 0.6580487,0.760414 1.2874762,0.538245 0.1317575,-0.04651 1.3652951,-0.710077 2.7411944,-1.474601 1.3758998,-0.764523 2.5993863,-1.435277 2.7188593,-1.490565 0.514173,-0.237939 1.39102,-0.280635 1.962105,-0.09554 0.190544,0.06176 1.041292,0.514977 2.778412,1.480145 1.377077,0.765123 2.617625,1.445199 2.756775,1.511281 0.277708,0.131884 0.601846,0.190586 0.824205,0.149268 0.07889,-0.01466 0.155494,-0.02736 0.170229,-0.02822 z"
     id="path4" />
</svg>
