<?xml version="1.0" encoding="UTF-8" standalone="no"?>
<svg
   height="24"
   viewBox="0 0 24 24"
   width="24"
   version="1.1"
   id="svg5"
   sodipodi:docname="google.svg"
   inkscape:version="1.3.2 (091e20e, 2023-11-25, custom)"
   xmlns:inkscape="http://www.inkscape.org/namespaces/inkscape"
   xmlns:sodipodi="http://sodipodi.sourceforge.net/DTD/sodipodi-0.dtd"
   xmlns="http://www.w3.org/2000/svg"
   xmlns:svg="http://www.w3.org/2000/svg">
  <defs
     id="defs5" />
  <sodipodi:namedview
     id="namedview5"
     pagecolor="#ffffff"
     bordercolor="#000000"
     borderopacity="0.25"
     inkscape:showpageshadow="2"
     inkscape:pageopacity="0.0"
     inkscape:pagecheckerboard="0"
     inkscape:deskcolor="#d1d1d1"
     inkscape:zoom="55.773047"
     inkscape:cx="10.175166"
     inkscape:cy="13.008075"
     inkscape:window-width="3840"
     inkscape:window-height="2089"
     inkscape:window-x="1432"
     inkscape:window-y="224"
     inkscape:window-maximized="1"
     inkscape:current-layer="svg5" />
  <path
     d="m 23.999046,12.281174 c 0,-0.849291 -0.07781,-1.665917 -0.22233,-2.4498772 H 12.259982 V 14.46973 h 6.580991 c -0.28903,1.491703 -1.15612,2.75475 -2.456755,3.60404 v 3.01607 h 3.968604 c 2.312239,-2.090561 3.646224,-5.161073 3.646224,-8.808666 z"
     fill="#4285f4"
     id="path1"
     style="stroke-width:1.10019" />
  <path
     d="m 12.259982,23.986139 c 3.301611,0 6.06963,-1.067057 8.09284,-2.896299 l -3.968604,-3.01607 c -1.089421,0.71863 -2.478988,1.154164 -4.124236,1.154164 -3.1793297,0 -5.8806484,-2.101449 -6.8477872,-4.932418 h -4.068653 v 3.092289 c 2.0120935,3.908915 6.136329,6.598334 10.9164402,6.598334 z"
     fill="#34a853"
     id="path2"
     style="stroke-width:1.10019" />
  <path
     d="M 5.4121948,14.284628 C 5.1676309,13.565998 5.023116,12.803814 5.023116,12.008965 c 0,-0.794849 0.1445149,-1.557032 0.3890788,-2.2756632 V 6.6410131 H 1.3435418 C 0.50980153,8.2524874 0.0317904,10.07084 0.0317904,12.008965 c 0,1.938124 0.47801113,3.756477 1.3117514,5.367952 l 3.1682134,-2.417212 z"
     fill="#fbbc05"
     id="path3"
     style="stroke-width:1.10019" />
  <path
     d="m 12.259982,4.8008836 c 1.800879,0 3.401661,0.6097469 4.680062,1.7856877 l 3.50171,-3.4298271 C 18.318496,1.2186195 15.561593,0.0317904 12.259982,0.0317904 c -4.7801112,0 -8.9043467,2.6894202 -10.9164402,6.6092227 l 4.068653,3.0922887 C 6.3793336,6.9023333 9.0806523,4.8008836 12.259982,4.8008836 Z"
     fill="#ea4335"
     id="path4"
     style="stroke-width:1.10019" />
  <path
     d="M 0.0317904,0.0317904 H 24.488174 V 23.986139 H 0.0317904 Z"
     fill="none"
     id="path5"
     style="stroke-width:1.10019" />
</svg>
