<?xml version="1.0" encoding="UTF-8" standalone="no"?>
<svg
   width="24"
   height="24"
   viewBox="0 0 24 24"
   fill="none"
   version="1.1"
   id="svg3"
   sodipodi:docname="menu.svg"
   inkscape:version="1.3.2 (091e20e, 2023-11-25, custom)"
   xmlns:inkscape="http://www.inkscape.org/namespaces/inkscape"
   xmlns:sodipodi="http://sodipodi.sourceforge.net/DTD/sodipodi-0.dtd"
   xmlns="http://www.w3.org/2000/svg"
   xmlns:svg="http://www.w3.org/2000/svg">
  <defs
     id="defs3" />
  <sodipodi:namedview
     id="namedview3"
     pagecolor="#ffffff"
     bordercolor="#000000"
     borderopacity="0.25"
     inkscape:showpageshadow="2"
     inkscape:pageopacity="0.0"
     inkscape:pagecheckerboard="0"
     inkscape:deskcolor="#d1d1d1"
     inkscape:zoom="39.4375"
     inkscape:cx="11.8542"
     inkscape:cy="13.071315"
     inkscape:window-width="1488"
     inkscape:window-height="1237"
     inkscape:window-x="2929"
     inkscape:window-y="597"
     inkscape:window-maximized="0"
     inkscape:current-layer="svg3" />
  <path
     d="M3 7H21"
     stroke="#DFDFEC"
     stroke-width="1.5"
     stroke-linecap="round"
     id="path1"
     style="fill:#808080;fill-opacity:1;opacity:1" />
  <path
     d="M3 12H21"
     stroke="#DFDFEC"
     stroke-width="1.5"
     stroke-linecap="round"
     id="path2" />
  <path
     d="M3 17H21"
     stroke="#DFDFEC"
     stroke-width="1.5"
     stroke-linecap="round"
     id="path3" />
  <path
     style="opacity:1;fill:#808080;fill-opacity:1;stroke-width:0.0253566"
     d="M 2.8095901,7.7110391 C 2.5578777,7.6430889 2.3664468,7.4515793 2.2910756,7.1923116 2.1879085,6.8374292 2.3814765,6.4555967 2.7385103,6.3097013 c 0.1100438,-0.044968 0.4394165,-0.046627 9.2551507,-0.046627 8.905304,0 9.144252,0.00124 9.265384,0.047959 0.15101,0.058246 0.299574,0.1880995 0.388177,0.3392887 0.08941,0.1525626 0.110244,0.4352116 0.04473,0.6067586 -0.05829,0.1526255 -0.216513,0.3235856 -0.378731,0.4092143 l -0.127801,0.067461 -9.128368,0.00472 c -7.3037243,0.00377 -9.1521728,-0.00171 -9.2474619,-0.027433 z"
     id="path6" />
  <path
     style="opacity:1;fill:#808080;fill-opacity:1;stroke-width:0.0253566"
     d="M 2.8272583,12.717887 C 2.279386,12.583917 2.0776626,11.882823 2.4731852,11.487301 c 0.052867,-0.05287 0.1553214,-0.123224 0.2276766,-0.15635 l 0.1315551,-0.06023 9.2018581,0.0065 9.201858,0.0065 0.118315,0.06955 c 0.349949,0.205718 0.476465,0.621735 0.297807,0.979261 -0.0526,0.105266 -0.116336,0.185774 -0.194036,0.245102 -0.233748,0.17848 0.593446,0.164363 -9.462821,0.161492 -5.0006387,-0.0014 -9.1263013,-0.01097 -9.1681397,-0.0212 z"
     id="path7" />
  <path
     style="opacity:1;fill:#000000;fill-opacity:0;stroke-width:0.0253566"
     d="M 2.7467316,17.695475 C 2.6011613,17.643795 2.4198292,17.477417 2.3393261,17.32167 c -0.055259,-0.106908 -0.067088,-0.163584 -0.06681,-0.320085 2.105e-4,-0.118179 0.015754,-0.225593 0.041058,-0.283731 0.054455,-0.125113 0.2338429,-0.316254 0.3604043,-0.384017 l 0.1025661,-0.05491 9.1917585,-0.0066 9.191759,-0.0066 0.157415,0.07737 c 0.379171,0.186368 0.523046,0.607835 0.335567,0.983012 -0.08218,0.16445 -0.167968,0.25135 -0.337889,0.342253 l -0.104379,0.05584 -9.179081,0.0044 c -8.0541298,0.0039 -9.1920574,-1.98e-4 -9.2849641,-0.03318 z"
     id="path8" />
  <path
     style="opacity:1;fill:#808080;fill-opacity:1;stroke-width:0.0253566"
     d="M 2.7467316,17.695475 C 2.6011613,17.643795 2.4198292,17.477417 2.3393261,17.32167 c -0.055259,-0.106908 -0.067088,-0.163584 -0.06681,-0.320085 2.105e-4,-0.118179 0.015754,-0.225593 0.041058,-0.283731 0.054455,-0.125113 0.2338429,-0.316254 0.3604043,-0.384017 l 0.1025661,-0.05491 9.1917585,-0.0066 9.191759,-0.0066 0.157415,0.07737 c 0.379171,0.186368 0.523046,0.607835 0.335567,0.983012 -0.08218,0.16445 -0.167968,0.25135 -0.337889,0.342253 l -0.104379,0.05584 -9.179081,0.0044 c -8.0541298,0.0039 -9.1920574,-1.98e-4 -9.2849641,-0.03318 z"
     id="path9" />
  <path
     style="fill:#999999;stroke:#999999;stroke-width:0.0253566"
     d="M 2.8463472,7.6948509 C 2.4128209,7.6218766 2.1492469,7.0876778 2.3518001,6.6925273 2.4259292,6.5479127 2.5844623,6.3929341 2.7222931,6.3303412 c 0.085282,-0.038729 0.7899782,-0.04191 9.2840459,-0.04191 h 9.191759 l 0.107092,0.057224 c 0.137058,0.073236 0.270287,0.2067333 0.342128,0.3428155 0.07509,0.1422426 0.08123,0.4659197 0.0115,0.6060955 -0.05916,0.1189072 -0.19719,0.2611312 -0.343489,0.3539112 l -0.114479,0.0726 -9.117064,-0.00298 C 7.0693984,7.7164549 2.912552,7.705995 2.8463472,7.6948509 Z"
     id="path4" />
  <path
     style="fill:#999999;stroke:#999999;stroke-width:0.0253566"
     d="M 2.7126224,12.656818 C 2.4522108,12.534987 2.2847486,12.274765 2.2858667,11.993675 2.2869795,11.713933 2.4370662,11.481742 2.705672,11.344217 l 0.108908,-0.05576 9.215691,0.0059 9.215691,0.0059 0.133197,0.08841 c 0.233493,0.154984 0.35579,0.402014 0.331726,0.67006 -0.02354,0.262235 -0.232038,0.553466 -0.439759,0.614264 -0.07241,0.0212 -2.517945,0.03073 -9.264787,0.03614 l -9.1664024,0.0073 z"
     id="path5" />
  <path
     style="fill:#999999;stroke:#999999;stroke-width:0.0253566"
     d="m 2.8526149,17.688824 c -0.1500177,-0.01645 -0.2327185,-0.06416 -0.3854497,-0.222358 -0.1310076,-0.1357 -0.172395,-0.250456 -0.172395,-0.478004 0,-0.269154 0.095836,-0.439251 0.3423138,-0.607565 l 0.1267829,-0.08658 9.2044371,-0.0057 9.204438,-0.0057 0.108908,0.05613 c 0.148913,0.07674 0.302148,0.219929 0.367925,0.3438 0.08394,0.158083 0.07801,0.464687 -0.0123,0.635644 -0.07272,0.137662 -0.184048,0.252471 -0.328063,0.338332 l -0.09174,0.0547 -9.112696,-0.0037 c -5.0119836,-0.002 -9.1754545,-0.01061 -9.2521581,-0.01902 z"
     id="path10" />
</svg>
