<?xml version="1.0" encoding="UTF-8" standalone="no"?>
<svg
   width="24"
   height="24"
   viewBox="0 0 24 24"
   fill="none"
   version="1.1"
   id="svg5"
   sodipodi:docname="newtab.svg"
   inkscape:version="1.3.2 (091e20e, 2023-11-25, custom)"
   xmlns:inkscape="http://www.inkscape.org/namespaces/inkscape"
   xmlns:sodipodi="http://sodipodi.sourceforge.net/DTD/sodipodi-0.dtd"
   xmlns="http://www.w3.org/2000/svg"
   xmlns:svg="http://www.w3.org/2000/svg">
  <defs
     id="defs5" />
  <sodipodi:namedview
     id="namedview5"
     pagecolor="#ffffff"
     bordercolor="#000000"
     borderopacity="0.25"
     inkscape:showpageshadow="2"
     inkscape:pageopacity="0.0"
     inkscape:pagecheckerboard="0"
     inkscape:deskcolor="#d1d1d1"
     inkscape:zoom="78.875"
     inkscape:cx="12"
     inkscape:cy="12"
     inkscape:window-width="3840"
     inkscape:window-height="2089"
     inkscape:window-x="1432"
     inkscape:window-y="224"
     inkscape:window-maximized="1"
     inkscape:current-layer="svg5" />
  <path
     d="M22 8.27V4.23C22 2.64 21.36 2 19.77 2H15.73C14.14 2 13.5 2.64 13.5 4.23V8.27C13.5 9.86 14.14 10.5 15.73 10.5H19.77C21.36 10.5 22 9.86 22 8.27Z"
     stroke="#DFDFEC"
     stroke-width="1.5"
     stroke-linecap="round"
     stroke-linejoin="round"
     id="path1" />
  <path
     d="M10.5 8.52V3.98C10.5 2.57 9.86 2 8.27 2H4.23C2.64 2 2 2.57 2 3.98V8.51C2 9.93 2.64 10.49 4.23 10.49H8.27C9.86 10.5 10.5 9.93 10.5 8.52Z"
     stroke="#DFDFEC"
     stroke-width="1.5"
     stroke-linecap="round"
     stroke-linejoin="round"
     id="path2" />
  <path
     d="M10.5 19.77V15.73C10.5 14.14 9.86 13.5 8.27 13.5H4.23C2.64 13.5 2 14.14 2 15.73V19.77C2 21.36 2.64 22 4.23 22H8.27C9.86 22 10.5 21.36 10.5 19.77Z"
     stroke="#DFDFEC"
     stroke-width="1.5"
     stroke-linecap="round"
     stroke-linejoin="round"
     id="path3" />
  <path
     d="M14.5 17.5H20.5"
     stroke="#DFDFEC"
     stroke-width="1.5"
     stroke-linecap="round"
     id="path4" />
  <path
     d="M17.5 20.5V14.5"
     stroke="#DFDFEC"
     stroke-width="1.5"
     stroke-linecap="round"
     id="path5" />
  <path
     style="fill:#999999;stroke:#999999;stroke-width:0.0126783"
     d="M 3.9049128,22.736506 C 3.52936,22.714459 3.163875,22.647199 2.8764964,22.547248 2.0152703,22.247712 1.4899023,21.591087 1.3202703,20.602219 c -0.059492,-0.346806 -0.058781,-0.312305 -0.058781,-2.852615 0,-2.540311 -7.109e-4,-2.50581 0.058781,-2.852615 0.207024,-1.206845 0.9407864,-1.913101 2.1725982,-2.091155 0.3487673,-0.05041 0.5153881,-0.05316 2.9096672,-0.04801 2.4529863,0.0053 2.3655977,0.0032 2.7246675,0.06591 1.0974118,0.191796 1.7996518,0.856947 2.0215428,1.914775 0.09457,0.450836 0.09663,0.514847 0.09677,3.006916 1.29e-4,2.258326 -0.0029,2.419396 -0.0517,2.761706 -0.170348,1.194639 -0.847933,1.926746 -1.9942968,2.15477 -0.3934572,0.07826 -0.2831161,0.0753 -2.8667171,0.07707 -1.2969889,8.93e-4 -2.3895404,-2.19e-4 -2.4278923,-0.0025 z m 4.9508717,-1.522585 c 0.5933517,-0.115779 0.7953734,-0.347675 0.875294,-1.004729 0.026261,-0.215898 0.026261,-4.703279 0,-4.919176 C 9.6577125,14.686849 9.4721425,14.43814 9.0079239,14.32081 8.7210821,14.24831 8.7551189,14.24911 6.1616482,14.2538 l -2.3771791,0.0043 -0.1584786,0.03273 c -0.087163,0.018 -0.1955626,0.04529 -0.2408875,0.06063 -0.435702,0.147538 -0.5990637,0.456307 -0.6340698,1.198455 -0.015571,0.330109 -0.015571,4.069257 0,4.399366 0.043699,0.926444 0.280742,1.203864 1.1031665,1.291075 0.024406,0.0026 1.1283677,0.0038 2.4532488,0.0027 2.4078986,-0.002 2.4089313,-0.002 2.548336,-0.02918 z"
     id="path6" />
  <path
     style="fill:#999999;stroke:#999999;stroke-width:0.0126783"
     d="M 3.77813,11.219606 C 3.287227,11.182184 2.8704356,11.082155 2.5366547,10.921654 2.2733411,10.795038 2.0970318,10.667867 1.8998277,10.462314 1.5683539,10.116806 1.3758883,9.6772663 1.285186,9.0586371 1.2646128,8.9183187 1.2625149,8.7104638 1.2581858,6.3835182 1.2533071,3.7611044 1.2554841,3.6220308 1.3063253,3.308232 1.4930578,2.1556946 2.2203685,1.4797663 3.4611727,1.3056181 c 0.35357,-0.049624 0.5277917,-0.052447 2.941363,-0.04767 2.1377624,0.00423 2.3408628,0.00643 2.5039619,0.027144 0.8170279,0.1037498 1.3785664,0.3654005 1.7657474,0.8227554 0.303012,0.357931 0.483154,0.8175009 0.550353,1.4040378 0.02463,0.2149902 0.02447,5.2642061 -1.8e-4,5.4770206 -0.109153,0.942543 -0.515073,1.5744361 -1.2382659,1.9276021 -0.3054021,0.149141 -0.6185696,0.233719 -1.0839936,0.292756 -0.1409762,0.01788 -4.8971379,0.02749 -5.1220285,0.01034 z M 8.5704122,9.7366619 C 8.8828768,9.7176595 9.1047541,9.6766955 9.274168,9.6067318 9.3676138,9.5681409 9.4973994,9.4794831 9.5423753,9.4235166 9.6370046,9.3057629 9.7066441,9.1057229 9.7356046,8.8684628 c 0.019559,-0.160239 0.019559,-5.0758942 0,-5.2361332 C 9.6754684,3.1396615 9.5090723,2.937286 9.0737297,2.8273387 8.7667887,2.7498198 8.8187456,2.7512208 6.2503185,2.7512039 3.7105264,2.7511873 3.7449488,2.7503285 3.4509662,2.8210378 3.0369467,2.9206186 2.8698016,3.0867095 2.7876295,3.4801902 2.7415161,3.7010048 2.736544,4.026366 2.7421002,6.459588 c 0.00474,2.0764802 0.00758,2.3456718 0.025833,2.4499058 0.08126,0.4640342 0.2282785,0.6411934 0.6176214,0.7442398 0.1655042,0.043804 0.3426451,0.070541 0.5447148,0.08222 0.2604472,0.015052 4.3939021,0.015683 4.6401428,7.083e-4 z"
     id="path7" />
  <path
     style="fill:#999999;stroke:#999999;stroke-width:0.0126783"
     d="M 15.347068,11.232152 C 14.76873,11.191426 14.28293,11.056293 13.914422,10.833638 13.210548,10.408353 12.838668,9.697136 12.767548,8.6402536 c -0.0078,-0.1163724 -0.0128,-1.0438176 -0.0128,-2.3898574 0,-2.2553076 0.0031,-2.4241269 0.05117,-2.7575277 0.133409,-0.9259617 0.565055,-1.5707587 1.286,-1.9210352 0.360213,-0.1750128 0.750939,-0.2691138 1.261489,-0.3038126 0.251655,-0.017103 4.561878,-0.016802 4.805072,3.355e-4 1.457729,0.1027266 2.293973,0.8089836 2.521346,2.1294251 0.05902,0.3427454 0.05869,0.326454 0.05869,2.8652932 0,2.6144601 0.0021,2.5266537 -0.07076,2.903328 -0.16477,0.8513535 -0.579958,1.4319295 -1.260459,1.7625565 -0.355808,0.172872 -0.755387,0.268189 -1.272007,0.303426 -0.227035,0.01549 -4.567993,0.01527 -4.788215,-2.33e-4 z m 4.971306,-1.5107071 c 0.317487,-0.061591 0.507867,-0.1423302 0.632581,-0.2682738 0.185223,-0.1870484 0.274246,-0.4885918 0.29801,-1.009431 0.01544,-0.3383161 0.01544,-4.0483717 0,-4.3866878 -0.03999,-0.8765684 -0.247736,-1.1608957 -0.932387,-1.276118 -0.131867,-0.022192 -0.265356,-0.023407 -2.573313,-0.023407 -2.278134,0 -2.442362,0.00145 -2.561015,0.02257 -0.185965,0.033106 -0.302378,0.067968 -0.434934,0.1302484 -0.258475,0.1214429 -0.382214,0.3250395 -0.468754,0.7712792 -0.01759,0.090699 -0.02052,0.3820654 -0.02479,2.4673443 -0.005,2.4583948 -0.004,2.5183814 0.0479,2.7722131 0.08493,0.4153584 0.250804,0.6184036 0.597715,0.7316469 0.08863,0.028931 0.33698,0.076446 0.460359,0.088076 0.02789,0.00263 1.131855,0.00382 2.453249,0.00264 2.127688,-0.0019 2.414301,-0.00443 2.505379,-0.022096 z"
     id="path8" />
  <path
     style="fill:#999999;stroke:#999999;stroke-width:0.0126783"
     d="m 17.385069,21.23548 c -0.271088,-0.04814 -0.480048,-0.219138 -0.583592,-0.477571 l -0.03444,-0.08596 -0.0063,-1.210776 -0.0063,-1.210777 -1.204437,-0.0063 -1.204438,-0.0063 -0.08547,-0.03325 c -0.234929,-0.0914 -0.389589,-0.249364 -0.468616,-0.478629 -0.04141,-0.120138 -0.04092,-0.339396 0.001,-0.458007 0.07796,-0.220451 0.243821,-0.388893 0.465174,-0.472414 l 0.07521,-0.02838 1.210777,-0.0063 1.210776,-0.0063 0.0063,-1.210776 0.0063,-1.210777 0.02838,-0.07521 c 0.08352,-0.221353 0.251963,-0.387213 0.472414,-0.465174 0.118611,-0.04195 0.337869,-0.04244 0.458007,-10e-4 0.229265,0.07903 0.387229,0.233687 0.478629,0.468616 l 0.03325,0.08547 0.0035,1.207607 0.0035,1.207607 h 1.182388 c 1.302208,0 1.245993,-0.0032 1.415488,0.07958 0.120204,0.05868 0.262388,0.203599 0.320719,0.3269 0.05885,0.124399 0.07843,0.210808 0.0774,0.341542 -0.0014,0.173312 -0.06847,0.351224 -0.182664,0.484344 -0.06745,0.07863 -0.220576,0.179831 -0.326511,0.215795 l -0.08502,0.02886 -1.200958,0.0035 -1.200958,0.0035 -0.0035,1.200958 -0.0035,1.200958 -0.02886,0.08502 c -0.03596,0.105935 -0.137164,0.259057 -0.215795,0.326511 -0.07135,0.06121 -0.199085,0.130081 -0.291749,0.157309 -0.08768,0.02576 -0.232394,0.03494 -0.316242,0.02005 z"
     id="path9" />
</svg>
