<?xml version="1.0" encoding="UTF-8" standalone="no"?>
<svg
   width="24"
   height="24"
   viewBox="0 0 24 24"
   fill="none"
   version="1.1"
   id="svg1"
   sodipodi:docname="refresh.svg"
   inkscape:version="1.3.2 (091e20e, 2023-11-25, custom)"
   xmlns:inkscape="http://www.inkscape.org/namespaces/inkscape"
   xmlns:sodipodi="http://sodipodi.sourceforge.net/DTD/sodipodi-0.dtd"
   xmlns="http://www.w3.org/2000/svg"
   xmlns:svg="http://www.w3.org/2000/svg">
  <defs
     id="defs1" />
  <sodipodi:namedview
     id="namedview1"
     pagecolor="#ffffff"
     bordercolor="#000000"
     borderopacity="0.25"
     inkscape:showpageshadow="2"
     inkscape:pageopacity="0.0"
     inkscape:pagecheckerboard="0"
     inkscape:deskcolor="#d1d1d1"
     inkscape:zoom="78.875"
     inkscape:cx="12"
     inkscape:cy="12"
     inkscape:window-width="3840"
     inkscape:window-height="2089"
     inkscape:window-x="1432"
     inkscape:window-y="224"
     inkscape:window-maximized="1"
     inkscape:current-layer="svg1" />
  <path
     d="M22 12C22 17.52 17.52 22 12 22C6.48 22 3.11 16.44 3.11 16.44M3.11 16.44H7.63M3.11 16.44V21.44M2 12C2 6.48 6.44 2 12 2C18.67 2 22 7.56 22 7.56M22 7.56V2.56M22 7.56H17.56"
     stroke="#DFDFEC"
     stroke-width="1.5"
     stroke-linecap="round"
     stroke-linejoin="round"
     id="path1" />
  <path
     style="fill:#999999;stroke:#999999;stroke-width:0.0126783"
     d="M 1.823133,12.722043 C 1.6485176,12.679702 1.4603314,12.543369 1.3708123,12.394355 1.2911865,12.26181 1.2653214,12.16966 1.2583438,11.993661 1.2511517,11.812255 1.2722966,11.324972 1.3007056,11.017433 1.595862,7.8222378 3.259823,4.9722429 5.8954041,3.1477369 6.5327016,2.7065618 7.272996,2.310295 8.0063391,2.0177903 9.877961,1.2712661 11.931579,1.0708399 14.053883,1.4275703 c 1.948408,0.3275008 3.803395,1.1472883 5.464422,2.4149313 0.494066,0.3770548 0.947753,0.7756499 1.416682,1.2446505 0.172563,0.1725893 0.31662,0.3137988 0.320127,0.3137988 0.0035,0 0.0064,-0.6672174 0.0064,-1.4827053 V 2.4355403 l 0.03156,-0.099905 c 0.08023,-0.2539716 0.298023,-0.4488718 0.564319,-0.5049995 0.318859,-0.067207 0.663569,0.1043042 0.810341,0.4031871 0.08106,0.1650682 0.07668,0.00372 0.07692,2.8322952 2.17e-4,2.5230439 -2.83e-4,2.5768037 -0.02482,2.67276 -0.03537,0.1383094 -0.09379,0.2404123 -0.196826,0.3440357 -0.102634,0.1032178 -0.202378,0.1602196 -0.343531,0.1963202 -0.09576,0.02449 -0.148969,0.025045 -2.401318,0.025045 -2.253411,0 -2.30552,-5.441e-4 -2.401453,-0.02508 -0.305174,-0.078051 -0.526744,-0.339707 -0.5585,-0.6595481 -0.03424,-0.3448262 0.212132,-0.6892466 0.557349,-0.7791642 0.0657,-0.017113 0.266414,-0.019568 1.600196,-0.019568 0.838788,0 1.52507,-0.00454 1.52507,-0.010089 0,-0.020304 -0.393439,-0.4464065 -0.634386,-0.6870536 C 17.81277,4.0726969 15.331315,2.9212468 12.623342,2.7628316 12.292995,2.7435064 11.426187,2.7546863 11.150555,2.7818272 10.24963,2.8705392 9.4067682,3.0686468 8.6212256,3.3763249 5.7730741,4.4918775 3.6636423,6.9359362 2.9801192,9.9123009 2.8432138,10.508448 2.7724493,11.075046 2.751048,11.746434 c -0.00829,0.259923 -0.017518,0.389621 -0.031506,0.442571 -0.068048,0.257596 -0.2813871,0.466531 -0.5447094,0.533467 -0.092145,0.02342 -0.2541483,0.02323 -0.3516996,-4.29e-4 z"
     id="path2" />
  <path
     style="fill:#999999;stroke:#999999;stroke-width:0.0126783"
     d="m 11.505547,22.731013 c -2.6926755,-0.152896 -5.2956207,-1.527997 -7.5516616,-3.98944 -0.046282,-0.0505 -0.087645,-0.09181 -0.091918,-0.09181 -0.00427,0 -0.00777,0.646631 -0.00777,1.436958 0,1.389504 -8.271e-4,1.440192 -0.025045,1.534884 -0.034626,0.135384 -0.093548,0.239942 -0.1904857,0.33802 -0.2317765,0.234502 -0.5627273,0.289493 -0.8621236,0.143253 -0.1237931,-0.06047 -0.2698933,-0.204286 -0.3274355,-0.322324 -0.084272,-0.172871 -0.078844,0.03439 -0.075219,-2.871657 l 0.00329,-2.636313 0.028378,-0.07521 c 0.083412,-0.221065 0.2506376,-0.385903 0.4724141,-0.465673 l 0.082409,-0.02964 H 5.362916 7.7654517 l 0.092901,0.03043 c 0.2367554,0.07756 0.4266471,0.277223 0.4906465,0.515904 0.032573,0.12148 0.027237,0.298479 -0.012575,0.417076 -0.018237,0.05433 -0.047954,0.124025 -0.066037,0.154881 -0.079137,0.135037 -0.2255941,0.255662 -0.3908311,0.321897 l -0.07607,0.03049 -1.606973,0.0034 c -1.0230654,0.0022 -1.6069731,0.0079 -1.6069731,0.01566 0,0.01379 0.2448908,0.302038 0.4361944,0.513426 0.7896509,0.872553 1.6768604,1.630976 2.5622208,2.190293 1.1900453,0.751799 2.3650925,1.176072 3.6640258,1.322967 0.238479,0.02697 1.02384,0.03812 1.322425,0.01877 0.613006,-0.03972 1.242362,-0.141751 1.808139,-0.293136 3.503577,-0.937448 6.146071,-3.840701 6.744507,-7.41005 0.07229,-0.431152 0.105887,-0.783133 0.121636,-1.274168 0.0085,-0.264891 0.01777,-0.395862 0.03178,-0.44891 0.08483,-0.321234 0.38531,-0.553135 0.715861,-0.552487 0.195315,3.82e-4 0.364756,0.06645 0.505186,0.196984 0.09342,0.08684 0.153111,0.176745 0.203747,0.306897 0.03308,0.08502 0.03324,0.08725 0.03165,0.421446 -0.0081,1.696494 -0.487215,3.49556 -1.337099,5.020602 -0.82987,1.48913 -1.985814,2.749941 -3.39664,3.704784 -1.378787,0.933159 -2.977944,1.536764 -4.627576,1.746689 -0.617361,0.07856 -1.315402,0.106596 -1.870047,0.0751 z"
     id="path3" />
</svg>
