<?xml version="1.0" encoding="UTF-8" standalone="no"?>
<svg
   width="24"
   height="24"
   viewBox="0 0 24 24"
   fill="none"
   version="1.1"
   id="svg2"
   sodipodi:docname="search.svg"
   inkscape:version="1.3.2 (091e20e, 2023-11-25, custom)"
   xmlns:inkscape="http://www.inkscape.org/namespaces/inkscape"
   xmlns:sodipodi="http://sodipodi.sourceforge.net/DTD/sodipodi-0.dtd"
   xmlns="http://www.w3.org/2000/svg"
   xmlns:svg="http://www.w3.org/2000/svg">
  <defs
     id="defs2" />
  <sodipodi:namedview
     id="namedview2"
     pagecolor="#ffffff"
     bordercolor="#000000"
     borderopacity="0.25"
     inkscape:showpageshadow="2"
     inkscape:pageopacity="0.0"
     inkscape:pagecheckerboard="0"
     inkscape:deskcolor="#d1d1d1"
     inkscape:zoom="27.886524"
     inkscape:cx="7.0464143"
     inkscape:cy="20.099314"
     inkscape:window-width="1488"
     inkscape:window-height="1237"
     inkscape:window-x="1925"
     inkscape:window-y="895"
     inkscape:window-maximized="0"
     inkscape:current-layer="svg2" />
  <path
     d="M11.5 21C16.7467 21 21 16.7467 21 11.5C21 6.25329 16.7467 2 11.5 2C6.25329 2 2 6.25329 2 11.5C2 16.7467 6.25329 21 11.5 21Z"
     stroke="#DFDFEC"
     stroke-width="1.5"
     stroke-linecap="round"
     stroke-linejoin="round"
     id="path1" />
  <path
     d="M22 22L20 20"
     stroke="#DFDFEC"
     stroke-width="1.5"
     stroke-linecap="round"
     stroke-linejoin="round"
     id="path2" />
  <path
     style="fill:#999999;stroke:#999999;stroke-width:0.0358596"
     d="M 10.827859,21.711602 C 9.0600221,21.592434 7.3133149,21.002339 5.863047,20.034324 5.1873307,19.583301 4.8491849,19.304253 4.2491592,18.702496 2.7508567,17.199868 1.7926182,15.357421 1.4192573,13.261319 1.1907227,11.978293 1.237691,10.39747 1.5418899,9.1338473 2.4479481,5.3701423 5.3811053,2.4366755 9.1338473,1.5410883 10.406353,1.2374064 11.979663,1.1909669 13.261319,1.4192573 c 1.659543,0.2956004 3.208723,0.9834782 4.540111,2.0159328 0.448258,0.3476117 1.323631,1.2083403 1.666831,1.6389454 1.969473,2.471057 2.694459,5.6180985 2.007422,8.7138865 -0.679953,3.063869 -2.890235,5.753394 -5.797007,7.053939 -1.118873,0.500605 -2.26888,0.781514 -3.558508,0.869227 -0.587984,0.03999 -0.704615,0.04003 -1.292309,4.14e-4 z m 1.812655,-1.526093 c 1.906939,-0.248818 3.687526,-1.127106 5.052707,-2.492288 1.283513,-1.283512 2.137846,-2.933204 2.442795,-4.716965 C 20.482203,10.951276 20.106726,8.8653556 19.07904,7.104347 17.675766,4.6997428 15.248021,3.1149324 12.474455,2.7929322 11.865355,2.722218 10.772873,2.7408483 10.184131,2.8319894 7.3470341,3.2711902 4.8905038,5.0752231 3.6397091,7.638098 c -0.4126914,0.8456038 -0.67008,1.6569243 -0.8077197,2.546033 -0.091141,0.588742 -0.1097714,1.681224 -0.039057,2.290324 0.3749345,3.229519 2.4715651,5.976451 5.472709,7.170153 1.3803564,0.549036 2.8859166,0.73518 4.3748726,0.540901 z"
     id="path3" />
  <path
     style="fill:#999999;stroke:#999999;stroke-width:0.0358596"
     d="m 21.712997,22.677479 c -0.126656,-0.04951 -2.285233,-2.209328 -2.369178,-2.370544 -0.130943,-0.251476 -0.05989,-0.648905 0.150605,-0.842418 0.186772,-0.1717 0.537169,-0.240627 0.772889,-0.152033 0.134966,0.05073 2.335959,2.24313 2.399761,2.390396 0.05927,0.13681 0.0654,0.430762 0.01193,0.572571 -0.05162,0.136916 -0.241513,0.33176 -0.38214,0.392102 -0.131666,0.0565 -0.450843,0.06192 -0.58387,0.0099 z"
     id="path4" />
</svg>
